{
	"asset":{
		"generator":"Khronos glTF Blender I/O v3.6.27",
		"version":"2.0"
	},
	"extensionsUsed":[
		"KHR_lights_punctual",
		"KHR_materials_specular",
		"KHR_materials_ior"
	],
	"extensionsRequired":[
		"KHR_lights_punctual"
	],
	"extensions":{
		"KHR_lights_punctual":{
			"lights":[
				{
					"color":[
						1,
						1,
						1
					],
					"intensity":54351.41306588226,
					"type":"point",
					"name":"Light"
				}
			]
		}
	},
	"scene":0,
	"scenes":[
		{
			"name":"Scene",
			"nodes":[
				0,
				1,
				2,
				3,
				4,
				5,
				6,
				7,
				8,
				9,
				10,
				11
			]
		}
	],
	"nodes":[
		{
			"extensions":{
				"KHR_lights_punctual":{
					"light":0
				}
			},
			"name":"Light",
			"rotation":[
				-0.28416627645492554,
				0.7269423007965088,
				0.34203392267227173,
				0.5232754945755005
			],
			"translation":[
				0.009229183197021484,
				5.903861999511719,
				-5.595025062561035
			]
		},
		{
			"camera":0,
			"name":"Camera",
			"rotation":[
				-0.20997299253940582,
				0.3857799470424652,
				0.09062844514846802,
				0.8937962055206299
			],
			"translation":[
				7.358891487121582,
				4.958309173583984,
				6.925790786743164
			]
		},
		{
			"mesh":0,
			"name":"ceiling",
			"translation":[
				0,
				2.4200000762939453,
				0
			]
		},
		{
			"mesh":1,
			"name":"door_up"
		},
		{
			"mesh":2,
			"name":"floor"
		},
		{
			"mesh":3,
			"name":"wall_up",
			"rotation":[
				0,
				1,
				0,
				8.466567891218801e-08
			]
		},
		{
			"mesh":4,
			"name":"wall_up.001"
		},
		{
			"mesh":5,
			"name":"wall_up.002",
			"rotation":[
				0,
				0.7071066498756409,
				0,
				0.70710688829422
			]
		},
		{
			"mesh":6,
			"name":"wall_up.003",
			"rotation":[
				0,
				-0.7071068286895752,
				0,
				0.7071067094802856
			]
		},
		{
			"mesh":7,
			"name":"door_up.001",
			"rotation":[
				0,
				0.7071066498756409,
				0,
				0.70710688829422
			]
		},
		{
			"mesh":8,
			"name":"door_up.002",
			"rotation":[
				0,
				1,
				0,
				1.4901162614933128e-07
			]
		},
		{
			"mesh":9,
			"name":"door_up.003",
			"rotation":[
				0,
				-0.7071069478988647,
				0,
				0.7071065902709961
			]
		}
	],
	"cameras":[
		{
			"name":"Camera",
			"perspective":{
				"aspectRatio":1.7777777777777777,
				"yfov":0.39959652046304894,
				"zfar":100,
				"znear":0.10000000149011612
			},
			"type":"perspective"
		}
	],
	"materials":[
		{
			"doubleSided":true,
			"extensions":{
				"KHR_materials_specular":{
					"specularColorFactor":[
						0.9614777254724349,
						0.9614777254724349,
						0.9614777254724349
					]
				},
				"KHR_materials_ior":{
					"ior":1.4500000476837158
				}
			},
			"name":"ceiling",
			"pbrMetallicRoughness":{
				"baseColorTexture":{
					"index":0
				},
				"metallicFactor":0,
				"roughnessFactor":0.3181818127632141
			}
		},
		{
			"doubleSided":true,
			"extensions":{
				"KHR_materials_specular":{
					"specularColorFactor":[
						0.6596685796833089,
						0.6596685796833089,
						0.6596685796833089
					]
				},
				"KHR_materials_ior":{
					"ior":1.4500000476837158
				}
			},
			"name":"walls",
			"pbrMetallicRoughness":{
				"baseColorTexture":{
					"index":1
				},
				"metallicFactor":0,
				"roughnessFactor":0.5836363434791565
			}
		},
		{
			"doubleSided":true,
			"extensions":{
				"KHR_materials_specular":{
					"specularColorFactor":[
						0.9614777254724349,
						0.9614777254724349,
						0.9614777254724349
					]
				},
				"KHR_materials_ior":{
					"ior":1.4500000476837158
				}
			},
			"name":"floor",
			"pbrMetallicRoughness":{
				"baseColorTexture":{
					"index":2
				},
				"metallicFactor":0,
				"roughnessFactor":0.3181818127632141
			}
		}
	],
	"meshes":[
		{
			"name":"Cube.014",
			"primitives":[
				{
					"attributes":{
						"POSITION":0,
						"NORMAL":1,
						"TEXCOORD_0":2,
						"TANGENT":3
					},
					"indices":4,
					"material":0
				}
			]
		},
		{
			"name":"Cube.007",
			"primitives":[
				{
					"attributes":{
						"POSITION":5,
						"NORMAL":6,
						"TEXCOORD_0":7,
						"TANGENT":8
					},
					"indices":9,
					"material":1
				}
			]
		},
		{
			"name":"Cube.001",
			"primitives":[
				{
					"attributes":{
						"POSITION":10,
						"NORMAL":11,
						"TEXCOORD_0":12,
						"TANGENT":13
					},
					"indices":4,
					"material":2
				}
			]
		},
		{
			"name":"Cube.004",
			"primitives":[
				{
					"attributes":{
						"POSITION":14,
						"NORMAL":15,
						"TEXCOORD_0":16,
						"TANGENT":17
					},
					"indices":4,
					"material":1
				}
			]
		},
		{
			"name":"Cube.002",
			"primitives":[
				{
					"attributes":{
						"POSITION":18,
						"NORMAL":19,
						"TEXCOORD_0":20,
						"TANGENT":21
					},
					"indices":4,
					"material":1
				}
			]
		},
		{
			"name":"Cube.003",
			"primitives":[
				{
					"attributes":{
						"POSITION":22,
						"NORMAL":23,
						"TEXCOORD_0":24,
						"TANGENT":25
					},
					"indices":4,
					"material":1
				}
			]
		},
		{
			"name":"Cube.005",
			"primitives":[
				{
					"attributes":{
						"POSITION":26,
						"NORMAL":27,
						"TEXCOORD_0":28,
						"TANGENT":29
					},
					"indices":4,
					"material":1
				}
			]
		},
		{
			"name":"Cube.006",
			"primitives":[
				{
					"attributes":{
						"POSITION":30,
						"NORMAL":31,
						"TEXCOORD_0":32,
						"TANGENT":33
					},
					"indices":9,
					"material":1
				}
			]
		},
		{
			"name":"Cube.015",
			"primitives":[
				{
					"attributes":{
						"POSITION":34,
						"NORMAL":35,
						"TEXCOORD_0":36,
						"TANGENT":37
					},
					"indices":9,
					"material":1
				}
			]
		},
		{
			"name":"Cube.016",
			"primitives":[
				{
					"attributes":{
						"POSITION":38,
						"NORMAL":39,
						"TEXCOORD_0":40,
						"TANGENT":41
					},
					"indices":9,
					"material":1
				}
			]
		}
	],
	"textures":[
		{
			"sampler":0,
			"source":0
		},
		{
			"sampler":0,
			"source":0
		},
		{
			"sampler":0,
			"source":0
		}
	],
	"images":[
		{
			"mimeType":"image/jpeg",
			"name":"wood_cabinet_worn_long_diff_4k.jpg",
			"uri":"../../../../Blender_University/making_textures/textures/wood_cabinet_worn_long_diff_4k.jpg"
		}
	],
	"accessors":[
		{
			"bufferView":0,
			"componentType":5126,
			"count":24,
			"max":[
				0.5,
				0.02010299451649189,
				0.5
			],
			"min":[
				-0.5,
				-0.02010299451649189,
				-0.5
			],
			"type":"VEC3"
		},
		{
			"bufferView":1,
			"componentType":5126,
			"count":24,
			"type":"VEC3"
		},
		{
			"bufferView":2,
			"componentType":5126,
			"count":24,
			"type":"VEC2"
		},
		{
			"bufferView":3,
			"componentType":5126,
			"count":24,
			"type":"VEC4"
		},
		{
			"bufferView":4,
			"componentType":5123,
			"count":36,
			"type":"SCALAR"
		},
		{
			"bufferView":5,
			"componentType":5126,
			"count":1529,
			"max":[
				0.5171489715576172,
				2.4000000953674316,
				-0.4489751160144806
			],
			"min":[
				-0.5,
				0.019999980926513672,
				-0.5110249519348145
			],
			"type":"VEC3"
		},
		{
			"bufferView":6,
			"componentType":5126,
			"count":1529,
			"type":"VEC3"
		},
		{
			"bufferView":7,
			"componentType":5126,
			"count":1529,
			"type":"VEC2"
		},
		{
			"bufferView":8,
			"componentType":5126,
			"count":1529,
			"type":"VEC4"
		},
		{
			"bufferView":9,
			"componentType":5123,
			"count":2256,
			"type":"SCALAR"
		},
		{
			"bufferView":10,
			"componentType":5126,
			"count":24,
			"max":[
				0.5,
				0.02010299451649189,
				0.5
			],
			"min":[
				-0.5,
				-0.02010299451649189,
				-0.5
			],
			"type":"VEC3"
		},
		{
			"bufferView":11,
			"componentType":5126,
			"count":24,
			"type":"VEC3"
		},
		{
			"bufferView":12,
			"componentType":5126,
			"count":24,
			"type":"VEC2"
		},
		{
			"bufferView":13,
			"componentType":5126,
			"count":24,
			"type":"VEC4"
		},
		{
			"bufferView":14,
			"componentType":5126,
			"count":24,
			"max":[
				0.5,
				2.4000000953674316,
				-0.4599999785423279
			],
			"min":[
				-0.5,
				0.019999999552965164,
				-0.5
			],
			"type":"VEC3"
		},
		{
			"bufferView":15,
			"componentType":5126,
			"count":24,
			"type":"VEC3"
		},
		{
			"bufferView":16,
			"componentType":5126,
			"count":24,
			"type":"VEC2"
		},
		{
			"bufferView":17,
			"componentType":5126,
			"count":24,
			"type":"VEC4"
		},
		{
			"bufferView":18,
			"componentType":5126,
			"count":24,
			"max":[
				0.5,
				2.4000000953674316,
				-0.4599999785423279
			],
			"min":[
				-0.5,
				0.019999999552965164,
				-0.5
			],
			"type":"VEC3"
		},
		{
			"bufferView":19,
			"componentType":5126,
			"count":24,
			"type":"VEC3"
		},
		{
			"bufferView":20,
			"componentType":5126,
			"count":24,
			"type":"VEC2"
		},
		{
			"bufferView":21,
			"componentType":5126,
			"count":24,
			"type":"VEC4"
		},
		{
			"bufferView":22,
			"componentType":5126,
			"count":24,
			"max":[
				0.5,
				2.4000000953674316,
				-0.4599999785423279
			],
			"min":[
				-0.5,
				0.019999999552965164,
				-0.5
			],
			"type":"VEC3"
		},
		{
			"bufferView":23,
			"componentType":5126,
			"count":24,
			"type":"VEC3"
		},
		{
			"bufferView":24,
			"componentType":5126,
			"count":24,
			"type":"VEC2"
		},
		{
			"bufferView":25,
			"componentType":5126,
			"count":24,
			"type":"VEC4"
		},
		{
			"bufferView":26,
			"componentType":5126,
			"count":24,
			"max":[
				0.5,
				2.4000000953674316,
				-0.4599999785423279
			],
			"min":[
				-0.5,
				0.019999999552965164,
				-0.5
			],
			"type":"VEC3"
		},
		{
			"bufferView":27,
			"componentType":5126,
			"count":24,
			"type":"VEC3"
		},
		{
			"bufferView":28,
			"componentType":5126,
			"count":24,
			"type":"VEC2"
		},
		{
			"bufferView":29,
			"componentType":5126,
			"count":24,
			"type":"VEC4"
		},
		{
			"bufferView":30,
			"componentType":5126,
			"count":1529,
			"max":[
				0.5171489715576172,
				2.4000000953674316,
				-0.4489751160144806
			],
			"min":[
				-0.5,
				0.019999980926513672,
				-0.5110249519348145
			],
			"type":"VEC3"
		},
		{
			"bufferView":31,
			"componentType":5126,
			"count":1529,
			"type":"VEC3"
		},
		{
			"bufferView":32,
			"componentType":5126,
			"count":1529,
			"type":"VEC2"
		},
		{
			"bufferView":33,
			"componentType":5126,
			"count":1529,
			"type":"VEC4"
		},
		{
			"bufferView":34,
			"componentType":5126,
			"count":1529,
			"max":[
				0.5171489715576172,
				2.4000000953674316,
				-0.4489751160144806
			],
			"min":[
				-0.5,
				0.019999980926513672,
				-0.5110249519348145
			],
			"type":"VEC3"
		},
		{
			"bufferView":35,
			"componentType":5126,
			"count":1529,
			"type":"VEC3"
		},
		{
			"bufferView":36,
			"componentType":5126,
			"count":1529,
			"type":"VEC2"
		},
		{
			"bufferView":37,
			"componentType":5126,
			"count":1529,
			"type":"VEC4"
		},
		{
			"bufferView":38,
			"componentType":5126,
			"count":1529,
			"max":[
				0.5171489715576172,
				2.4000000953674316,
				-0.4489751160144806
			],
			"min":[
				-0.5,
				0.019999980926513672,
				-0.5110249519348145
			],
			"type":"VEC3"
		},
		{
			"bufferView":39,
			"componentType":5126,
			"count":1529,
			"type":"VEC3"
		},
		{
			"bufferView":40,
			"componentType":5126,
			"count":1529,
			"type":"VEC2"
		},
		{
			"bufferView":41,
			"componentType":5126,
			"count":1529,
			"type":"VEC4"
		}
	],
	"bufferViews":[
		{
			"buffer":0,
			"byteLength":288,
			"byteOffset":0,
			"target":34962
		},
		{
			"buffer":0,
			"byteLength":288,
			"byteOffset":288,
			"target":34962
		},
		{
			"buffer":0,
			"byteLength":192,
			"byteOffset":576,
			"target":34962
		},
		{
			"buffer":0,
			"byteLength":384,
			"byteOffset":768,
			"target":34962
		},
		{
			"buffer":0,
			"byteLength":72,
			"byteOffset":1152,
			"target":34963
		},
		{
			"buffer":0,
			"byteLength":18348,
			"byteOffset":1224,
			"target":34962
		},
		{
			"buffer":0,
			"byteLength":18348,
			"byteOffset":19572,
			"target":34962
		},
		{
			"buffer":0,
			"byteLength":12232,
			"byteOffset":37920,
			"target":34962
		},
		{
			"buffer":0,
			"byteLength":24464,
			"byteOffset":50152,
			"target":34962
		},
		{
			"buffer":0,
			"byteLength":4512,
			"byteOffset":74616,
			"target":34963
		},
		{
			"buffer":0,
			"byteLength":288,
			"byteOffset":79128,
			"target":34962
		},
		{
			"buffer":0,
			"byteLength":288,
			"byteOffset":79416,
			"target":34962
		},
		{
			"buffer":0,
			"byteLength":192,
			"byteOffset":79704,
			"target":34962
		},
		{
			"buffer":0,
			"byteLength":384,
			"byteOffset":79896,
			"target":34962
		},
		{
			"buffer":0,
			"byteLength":288,
			"byteOffset":80280,
			"target":34962
		},
		{
			"buffer":0,
			"byteLength":288,
			"byteOffset":80568,
			"target":34962
		},
		{
			"buffer":0,
			"byteLength":192,
			"byteOffset":80856,
			"target":34962
		},
		{
			"buffer":0,
			"byteLength":384,
			"byteOffset":81048,
			"target":34962
		},
		{
			"buffer":0,
			"byteLength":288,
			"byteOffset":81432,
			"target":34962
		},
		{
			"buffer":0,
			"byteLength":288,
			"byteOffset":81720,
			"target":34962
		},
		{
			"buffer":0,
			"byteLength":192,
			"byteOffset":82008,
			"target":34962
		},
		{
			"buffer":0,
			"byteLength":384,
			"byteOffset":82200,
			"target":34962
		},
		{
			"buffer":0,
			"byteLength":288,
			"byteOffset":82584,
			"target":34962
		},
		{
			"buffer":0,
			"byteLength":288,
			"byteOffset":82872,
			"target":34962
		},
		{
			"buffer":0,
			"byteLength":192,
			"byteOffset":83160,
			"target":34962
		},
		{
			"buffer":0,
			"byteLength":384,
			"byteOffset":83352,
			"target":34962
		},
		{
			"buffer":0,
			"byteLength":288,
			"byteOffset":83736,
			"target":34962
		},
		{
			"buffer":0,
			"byteLength":288,
			"byteOffset":84024,
			"target":34962
		},
		{
			"buffer":0,
			"byteLength":192,
			"byteOffset":84312,
			"target":34962
		},
		{
			"buffer":0,
			"byteLength":384,
			"byteOffset":84504,
			"target":34962
		},
		{
			"buffer":0,
			"byteLength":18348,
			"byteOffset":84888,
			"target":34962
		},
		{
			"buffer":0,
			"byteLength":18348,
			"byteOffset":103236,
			"target":34962
		},
		{
			"buffer":0,
			"byteLength":12232,
			"byteOffset":121584,
			"target":34962
		},
		{
			"buffer":0,
			"byteLength":24464,
			"byteOffset":133816,
			"target":34962
		},
		{
			"buffer":0,
			"byteLength":18348,
			"byteOffset":158280,
			"target":34962
		},
		{
			"buffer":0,
			"byteLength":18348,
			"byteOffset":176628,
			"target":34962
		},
		{
			"buffer":0,
			"byteLength":12232,
			"byteOffset":194976,
			"target":34962
		},
		{
			"buffer":0,
			"byteLength":24464,
			"byteOffset":207208,
			"target":34962
		},
		{
			"buffer":0,
			"byteLength":18348,
			"byteOffset":231672,
			"target":34962
		},
		{
			"buffer":0,
			"byteLength":18348,
			"byteOffset":250020,
			"target":34962
		},
		{
			"buffer":0,
			"byteLength":12232,
			"byteOffset":268368,
			"target":34962
		},
		{
			"buffer":0,
			"byteLength":24464,
			"byteOffset":280600,
			"target":34962
		}
	],
	"samplers":[
		{
			"magFilter":9729,
			"minFilter":9987
		}
	],
	"buffers":[
		{
			"byteLength":305064,
			"uri":"wall_textures_difficult_edges_selected-0fc2828d2d34ed0aa9d45270f29c4b19.bin"
		}
	]
}
