<?xml version="1.0" standalone="no"?>
<!DOCTYPE svg PUBLIC "-//W3C//DTD SVG 20010904//EN"
 "http://www.w3.org/TR/2001/REC-SVG-20010904/DTD/svg10.dtd">
<svg version="1.0" xmlns="http://www.w3.org/2000/svg"
 width="48.000000pt" height="48.000000pt" viewBox="0 0 48.000000 48.000000"
 preserveAspectRatio="xMidYMid meet">

<g transform="translate(0.000000,48.000000) scale(0.100000,-0.100000)"
fill="#000000" stroke="none">
<path d="M0 240 l0 -240 240 0 240 0 0 240 0 240 -240 0 -240 0 0 -240z m265
190 c3 -5 1 -10 -4 -10 -6 0 -11 5 -11 10 0 6 2 10 4 10 3 0 8 -4 11 -10z m46
-150 c13 -10 19 -19 12 -20 -6 0 -21 -15 -33 -32 -12 -18 -19 -25 -16 -15 3 9
0 17 -5 17 -6 0 -9 -11 -7 -24 6 -31 -18 -45 -57 -31 -33 11 -42 46 -12 51 20
3 23 -12 5 -19 -8 -3 -6 -6 5 -6 18 -1 22 16 8 38 -9 14 -22 11 -53 -11 -25
-18 -34 -1 -12 23 43 48 125 63 165 29z m-218 -35 c-3 -9 -8 -14 -10 -11 -3 3
-2 9 2 15 9 16 15 13 8 -4z m245 -36 c-20 -13 -28 -11 -22 5 3 8 12 12 21 9
12 -5 12 -7 1 -14z m-128 -49 c13 -8 13 -10 -2 -10 -9 0 -20 5 -23 10 -8 13 5
13 25 0z"/>
</g>
</svg>
