<?xml version="1.0" encoding="UTF-8"?>
<!DOCTYPE svg PUBLIC "-//W3C//DTD SVG 1.1//EN" "http://www.w3.org/Graphics/SVG/1.1/DTD/svg11.dtd">
<svg xmlns="http://www.w3.org/2000/svg" version="1.1" width="48px" height="48px" style="shape-rendering:geometricPrecision; text-rendering:geometricPrecision; image-rendering:optimizeQuality; fill-rule:evenodd; clip-rule:evenodd" xmlns:xlink="http://www.w3.org/1999/xlink">
<g><path style="opacity:1" fill="#0b1416" d="M -0.5,-0.5 C 5.5,-0.5 11.5,-0.5 17.5,-0.5C 8.5,2.5 2.5,8.5 -0.5,17.5C -0.5,11.5 -0.5,5.5 -0.5,-0.5 Z"/></g>
<g><path style="opacity:1" fill="#26304c" d="M 17.5,-0.5 C 21.5,-0.5 25.5,-0.5 29.5,-0.5C 38.5,2.5 44.5,8.5 47.5,17.5C 47.5,21.5 47.5,25.5 47.5,29.5C 44.5,38.5 38.5,44.5 29.5,47.5C 25.5,47.5 21.5,47.5 17.5,47.5C 8.5,44.5 2.5,38.5 -0.5,29.5C -0.5,25.5 -0.5,21.5 -0.5,17.5C 2.5,8.5 8.5,2.5 17.5,-0.5 Z"/></g>
<g><path style="opacity:1" fill="#0b1416" d="M 29.5,-0.5 C 35.5,-0.5 41.5,-0.5 47.5,-0.5C 47.5,5.5 47.5,11.5 47.5,17.5C 44.5,8.5 38.5,2.5 29.5,-0.5 Z"/></g>
<g><path style="opacity:1" fill="#36709c" d="M 22.5,3.5 C 24.1667,3.5 25.8333,3.5 27.5,3.5C 28.5956,8.37589 26.9289,10.0426 22.5,8.5C 21.5224,8.97665 20.6891,9.64332 20,10.5C 21.2861,8.54335 22.1194,6.21002 22.5,3.5 Z"/></g>
<g><path style="opacity:1" fill="#4781ad" d="M 31.5,19.5 C 30.1086,21.921 29.2752,24.5877 29,27.5C 26.7731,30.6334 23.9398,31.8001 20.5,31C 23.0919,34.4135 25.4253,34.2468 27.5,30.5C 30.4197,32.8935 32.4197,32.0602 33.5,28C 31.7174,26.9335 31.2174,25.4335 32,23.5C 32.6054,25.4812 33.6054,25.8146 35,24.5C 35.4966,26.8098 35.6633,29.1432 35.5,31.5C 33.9084,35.5842 30.9084,38.0842 26.5,39C 14.0421,41.2012 7.54213,36.0345 7,23.5C 8.4907,21.9963 10.324,21.1629 12.5,21C 13.5117,17.328 15.845,15.9947 19.5,17C 20.056,17.3826 20.3893,17.8826 20.5,18.5C 17.5,18.1667 16.1667,19.5 16.5,22.5C 18.099,22.2322 19.4324,22.5655 20.5,23.5C 18.5168,23.1568 17.1834,23.8235 16.5,25.5C 17.3887,27.8586 18.722,28.0253 20.5,26C 20.2716,25.6012 19.9382,25.4346 19.5,25.5C 19.5,24.8333 19.8333,24.5 20.5,24.5C 21.404,25.209 21.7373,26.209 21.5,27.5C 22.8221,27.33 23.9887,27.6634 25,28.5C 25.3036,26.5595 26.1369,24.8928 27.5,23.5C 26.9478,21.9974 26.9478,20.3307 27.5,18.5C 25.5,18.5 23.5,18.5 21.5,18.5C 21.4323,15.915 20.9323,13.5817 20,11.5C 21.7482,13.1352 22.9149,15.1352 23.5,17.5C 25.5364,15.6554 27.8697,15.1554 30.5,16C 31.3366,17.0113 31.67,18.1779 31.5,19.5 Z"/></g>
<g><path style="opacity:1" fill="#1b1d20" d="M 20.5,23.5 C 20.5,23.8333 20.5,24.1667 20.5,24.5C 19.8333,24.5 19.5,24.8333 19.5,25.5C 18.5,24.1667 17.5,24.1667 16.5,25.5C 17.1834,23.8235 18.5168,23.1568 20.5,23.5 Z"/></g>
<g><path style="opacity:1" fill="#5f9bc7" d="M 20.5,18.5 C 20.8333,18.5 21.1667,18.5 21.5,18.5C 23.5,18.5 25.5,18.5 27.5,18.5C 26.9478,20.3307 26.9478,21.9974 27.5,23.5C 26.1369,24.8928 25.3036,26.5595 25,28.5C 23.9887,27.6634 22.8221,27.33 21.5,27.5C 21.7373,26.209 21.404,25.209 20.5,24.5C 20.5,24.1667 20.5,23.8333 20.5,23.5C 19.4324,22.5655 18.099,22.2322 16.5,22.5C 16.1667,19.5 17.5,18.1667 20.5,18.5 Z"/></g>
<g><path style="opacity:1" fill="#aaadaf" d="M 19.5,25.5 C 19.9382,25.4346 20.2716,25.6012 20.5,26C 18.722,28.0253 17.3887,27.8586 16.5,25.5C 17.5,24.1667 18.5,24.1667 19.5,25.5 Z"/></g>
<g><path style="opacity:1" fill="#39698d" d="M 31.5,19.5 C 33.1439,19.2865 34.6439,19.6198 36,20.5C 36.8099,24.3575 36.6433,28.0242 35.5,31.5C 35.6633,29.1432 35.4966,26.8098 35,24.5C 33.6054,25.8146 32.6054,25.4812 32,23.5C 31.2174,25.4335 31.7174,26.9335 33.5,28C 32.4197,32.0602 30.4197,32.8935 27.5,30.5C 25.4253,34.2468 23.0919,34.4135 20.5,31C 23.9398,31.8001 26.7731,30.6334 29,27.5C 29.2752,24.5877 30.1086,21.921 31.5,19.5 Z"/></g>
<g><path style="opacity:1" fill="#0b1416" d="M -0.5,29.5 C 2.5,38.5 8.5,44.5 17.5,47.5C 11.5,47.5 5.5,47.5 -0.5,47.5C -0.5,41.5 -0.5,35.5 -0.5,29.5 Z"/></g>
<g><path style="opacity:1" fill="#0b1416" d="M 47.5,29.5 C 47.5,35.5 47.5,41.5 47.5,47.5C 41.5,47.5 35.5,47.5 29.5,47.5C 38.5,44.5 44.5,38.5 47.5,29.5 Z"/></g>
</svg>
